<?xml version="1.0" encoding="utf-8" ?>
<svg baseProfile="full" height="640px" version="1.1" width="640px" xmlns="http://www.w3.org/2000/svg" xmlns:ev="http://www.w3.org/2001/xml-events" xmlns:xlink="http://www.w3.org/1999/xlink"><defs /><rect fill="rgb(34,177,76)" height="40px" width="40px" x="0px" y="0px" /><rect fill="rgb(30,230,86)" height="40px" width="40px" x="40px" y="0px" /><rect fill="rgb(30,230,86)" height="40px" width="40px" x="80px" y="0px" /><rect fill="rgb(30,230,86)" height="40px" width="40px" x="520px" y="0px" /><rect fill="rgb(30,230,86)" height="40px" width="40px" x="560px" y="0px" /><rect fill="rgb(34,177,76)" height="40px" width="40px" x="600px" y="0px" /><rect fill="rgb(30,230,86)" height="40px" width="40px" x="0px" y="40px" /><rect fill="rgb(34,177,76)" height="40px" width="40px" x="40px" y="40px" /><rect fill="rgb(34,177,76)" height="40px" width="40px" x="560px" y="40px" /><rect fill="rgb(30,230,86)" height="40px" width="40px" x="600px" y="40px" /><rect fill="rgb(30,230,86)" height="40px" width="40px" x="0px" y="80px" /><rect fill="rgb(30,230,86)" height="40px" width="40px" x="600px" y="80px" /><rect fill="rgb(34,177,76)" height="40px" width="40px" x="280px" y="280px" /><rect fill="rgb(30,230,86)" height="40px" width="40px" x="320px" y="280px" /><rect fill="rgb(30,230,86)" height="40px" width="40px" x="280px" y="320px" /><rect fill="rgb(34,177,76)" height="40px" width="40px" x="320px" y="320px" /><rect fill="rgb(30,230,86)" height="40px" width="40px" x="0px" y="520px" /><rect fill="rgb(30,230,86)" height="40px" width="40px" x="600px" y="520px" /><rect fill="rgb(30,230,86)" height="40px" width="40px" x="0px" y="560px" /><rect fill="rgb(34,177,76)" height="40px" width="40px" x="40px" y="560px" /><rect fill="rgb(34,177,76)" height="40px" width="40px" x="560px" y="560px" /><rect fill="rgb(30,230,86)" height="40px" width="40px" x="600px" y="560px" /><rect fill="rgb(34,177,76)" height="40px" width="40px" x="0px" y="600px" /><rect fill="rgb(30,230,86)" height="40px" width="40px" x="40px" y="600px" /><rect fill="rgb(30,230,86)" height="40px" width="40px" x="80px" y="600px" /><rect fill="rgb(30,230,86)" height="40px" width="40px" x="520px" y="600px" /><rect fill="rgb(30,230,86)" height="40px" width="40px" x="560px" y="600px" /><rect fill="rgb(34,177,76)" height="40px" width="40px" x="600px" y="600px" /></svg>